#!OML:ASF H:\LiuWeirdWalks\Patient Classification 1\Patient 1\Session 1\male.ASF
:FULLY-SPECIFIED
:DEGREES
872
root -0.909909 18.1756 8.60143 6.02714 3.27995 3.54593
lowerback 14.1303 -1.47511 0.0138543
upperback 3.07208 -1.71908 4.02554
thorax -4.54483 -0.830515 4.54578
lowerneck -14.4215 2.4645 7.58752
upperneck 18.3527 4.11266 -11.854
head 8.48678 1.30093 -4.8167
rclavicle 1.39149e-014 2.22639e-014
rhumerus -13.4439 -26.7309 -9.91996
rradius 37.6014
rwrist -5.00487
rhand -16.2493 -3.91197
rfingers 7.12502
rthumb 9.95967 -33.6563
lclavicle 1.39149e-014 2.22639e-014
lhumerus -26.9512 28.2998 36.2962
lradius 42.4095
lwrist 11.8655
lhand -16.7563 3.63798
lfingers 7.12502
lthumb 9.47048 33.4052
rfemur -19.6656 -13.5709 21.571
rtibia 38.4615
rfoot -15.827 -9.75107
rtoes -5.67737
lfemur -15.062 8.99307 -10.7098
ltibia 48.0037
lfoot -6.84199 11.0311
ltoes -15.5273
873
root -0.952733 18.174 8.63247 5.88824 3.30631 3.37045
lowerback 14.2265 -1.56256 -0.338877
upperback 3.12612 -1.89941 3.77492
thorax -4.52313 -0.917455 4.51361
lowerneck -14.2213 2.61172 7.7106
upperneck 18.2483 4.20157 -11.4357
head 8.41746 1.39892 -4.67788
rclavicle -2.42517e-014 -2.38542e-014
rhumerus -13.4652 -26.8283 -9.63206
rradius 37.6647
rwrist -4.97422
rhand -16.2928 -3.91902
rfingers 7.12502
rthumb 9.91771 -33.6654
lclavicle -2.42517e-014 -2.38542e-014
lhumerus -26.9443 28.4104 36.1017
lradius 42.2138
lwrist 11.708
lhand -16.7626 3.61679
lfingers 7.12502
lthumb 9.46441 33.3843
rfemur -19.3572 -13.5055 21.868
rtibia 38.3495
rfoot -15.778 -9.81668
rtoes -5.81684
lfemur -15.5487 9.03915 -10.3359
ltibia 48.3165
lfoot -6.97368 11.0216
ltoes -15.6535
874
root -0.995788 18.1723 8.663 5.76208 3.31578 3.21401
lowerback 14.3074 -1.64259 -0.698082
upperback 3.1793 -2.07276 3.50265
thorax -4.49456 -1.00115 4.46046
lowerneck -14.0267 2.75963 7.83732
upperneck 18.1541 4.28938 -11.0015
head 8.35227 1.49728 -4.53566
rclavicle -4.13472e-014 7.31528e-014
rhumerus -13.498 -26.9138 -9.34211
rradius 37.7434
rwrist -4.94864
rhand -16.3501 -3.90365
rfingers 7.12502
rthumb 9.86237 -33.6527
lclavicle -4.13472e-014 7.31528e-014
lhumerus -26.9369 28.5203 35.8817
lradius 42.0567
lwrist 11.5593
lhand -16.7585 3.59297
lfingers 7.12502
lthumb 9.4684 33.3603
rfemur -19.0732 -13.3999 22.1599
rtibia 38.2496
rfoot -15.7321 -9.95353
rtoes -5.93607
lfemur -16.0505 9.16087 -9.97532
ltibia 48.6129
lfoot -7.07574 11.0271
ltoes -15.7442
875
root -1.03814 18.171 8.6929 5.65037 3.32902 3.09023
lowerback 14.392 -1.72002 -1.05825
upperback 3.21935 -2.2439 3.21063
thorax -4.48232 -1.08339 4.3873
lowerneck -13.8212 2.90038 7.93403
upperneck 18.0495 4.36909 -10.5365
head 8.27953 1.59252 -4.37935
rclavicle 6.75868e-015 1.11319e-014
rhumerus -13.5721 -26.9081 -9.02789
rradius 37.8778
rwrist -5.02053
rhand -16.4304 -3.92564
rfingers 7.12502
rthumb 9.78494 -33.6783
lclavicle 6.75868e-015 1.11319e-014
lhumerus -26.9247 28.621 35.6565
lradius 41.9405
lwrist 11.4724
lhand -16.7427 3.5887
lfingers 7.12502
lthumb 9.4836 33.3553
rfemur -18.7968 -13.3003 22.4267
rtibia 38.1264
rfoot -15.6737 -10.1335
rtoes -6.01853
lfemur -16.5624 9.32642 -9.6482
ltibia 48.862
lfoot -7.12166 11.0498
ltoes -15.8142
876
root -1.08005 18.1702 8.72258 5.54618 3.35167 2.98197
lowerback 14.4717 -1.78991 -1.39537
upperback 3.25047 -2.40279 2.90341
thorax -4.47916 -1.15954 4.28306
lowerneck -13.6021 3.02462 7.99702
upperneck 17.9346 4.42842 -10.0383
head 8.19743 1.67876 -4.20932
rclavicle 1.23246e-014 -4.77083e-015
rhumerus -13.6981 -26.8451 -8.66783
rradius 38.0428
rwrist -5.16811
rhand -16.5265 -3.952
rfingers 7.12502
rthumb 9.69217 -33.709
lclavicle 1.23246e-014 -4.77083e-015
lhumerus -26.8905 28.6982 35.4479
lradius 41.8649
lwrist 11.4271
lhand -16.7279 3.60289
lfingers 7.12502
lthumb 9.49785 33.3688
rfemur -18.5333 -13.2111 22.6857
rtibia 38.01
rfoot -15.6179 -10.3503
rtoes -6.08362
lfemur -17.0851 9.52267 -9.3312
ltibia 49.086
lfoot -7.13175 11.0759
ltoes -15.8777
877
root -1.12256 18.1785 8.75376 5.44173 3.40141 2.8923
lowerback 14.5571 -1.86166 -1.71372
upperback 3.27164 -2.56236 2.58316
thorax -4.49092 -1.23571 4.15536
lowerneck -13.3864 3.1461 8.06854
upperneck 17.8309 4.48609 -9.54817
head 8.12002 1.76316 -4.0452
rclavicle 4.77083e-015 -1.35174e-014
rhumerus -13.8488 -26.7626 -8.2788
rradius 38.2157
rwrist -5.33444
rhand -16.6276 -4.01002
rfingers 7.12502
rthumb 9.59463 -33.7715
lclavicle 4.77083e-015 -1.35174e-014
lhumerus -26.8489 28.7509 35.245
lradius 41.8171
lwrist 11.4321
lhand -16.7141 3.59209
lfingers 7.12502
lthumb 9.51124 33.3574
rfemur -18.2452 -13.1512 22.9284
rtibia 37.8745
rfoot -15.5666 -10.5882
rtoes -6.12706
lfemur -17.5846 9.71645 -9.0281
ltibia 49.2511
lfoot -7.12653 11.1034
ltoes -15.9173
878
root -1.16351 18.1793 8.78341 5.34473 3.46728 2.81908
lowerback 14.634 -1.93758 -2.02941
upperback 3.2919 -2.72813 2.25191
thorax -4.49921 -1.31494 4.01549
lowerneck -13.1897 3.26251 8.11928
upperneck 17.7355 4.53672 -9.03094
head 8.04721 1.84411 -3.87042
rclavicle -1.66979e-014 7.15625e-015
rhumerus -13.975 -26.7312 -7.89151
rradius 38.3514
rwrist -5.44249
rhand -16.6866 -3.97324
rfingers 7.12502
rthumb 9.53773 -33.7374
lclavicle -1.66979e-014 7.15625e-015
lhumerus -26.8017 28.8252 35.0297
lradius 41.785
lwrist 11.4645
lhand -16.7143 3.59063
lfingers 7.12502
lthumb 9.51102 33.356
rfemur -17.988 -13.1062 23.1546
rtibia 37.7575
rfoot -15.5046 -10.8379
rtoes -6.16921
lfemur -18.1159 9.91214 -8.73137
ltibia 49.408
lfoot -7.11769 11.1137
ltoes -15.9667
